<?xml version="1.0" encoding="utf-8"?>
<svg width="800px" height="800px" viewBox="0 0 1024 1024" class="icon"  version="1.1" xmlns="http://www.w3.org/2000/svg"><path d="M609.087 412.679l318.269-40.915 1.402 10.91-318.268 40.915z" fill="#333336" /><path d="M399 248.5c-117.7 0-213.1 95.4-213.1 213.1S281.3 674.7 399 674.7s213.1-95.4 213.1-213.1S516.8 248.5 399 248.5z m0 307.4c-52.1 0-94.3-42.2-94.3-94.3s42.2-94.3 94.3-94.3 94.3 42.2 94.3 94.3-42.2 94.3-94.3 94.3z" fill="#D5D9CF" /><path d="M399.1 680.2c-58.4 0-113.3-22.7-154.6-64s-64-96.2-64-154.6 22.7-113.3 64-154.6 96.2-64 154.6-64 113.3 22.7 154.6 64 64 96.2 64 154.6c0 58.4-22.7 113.3-64 154.6-41.4 41.3-96.3 64-154.6 64z m0-426.2c-114.5 0-207.6 93.1-207.6 207.6s93.1 207.6 207.6 207.6 207.6-93.1 207.6-207.6S513.5 254 399.1 254z m0 307.4c-55 0-99.8-44.8-99.8-99.8s44.8-99.8 99.8-99.8 99.8 44.8 99.8 99.8c-0.1 55-44.8 99.8-99.8 99.8z m0-188.6c-49 0-88.8 39.8-88.8 88.8s39.8 88.8 88.8 88.8 88.8-39.8 88.8-88.8c-0.1-49-39.9-88.8-88.8-88.8z" fill="#333336" /><path d="M399 460.2m-54.1 0a54.1 54.1 0 1 0 108.2 0 54.1 54.1 0 1 0-108.2 0Z" fill="#D8A128" /><path d="M399.1 519.7c-32.8 0-59.6-26.7-59.6-59.6 0-32.8 26.7-59.6 59.6-59.6s59.5 26.7 59.5 59.6c0 32.9-26.7 59.6-59.5 59.6z m0-108.1c-26.8 0-48.6 21.8-48.6 48.6s21.8 48.6 48.6 48.6 48.5-21.8 48.5-48.6-21.8-48.6-48.5-48.6z" fill="#333336" /><path d="M859 386.5l-27.7 46.3c-37.7 63.1-110.2 96.8-182.7 84.9l-484.5-79c-19-3.1-37 9.5-40.6 28.4L95 616.2l23.6 103.7c6.7 29.4 32.8 50.2 62.9 50.2h633c32.2 0 59.5-23.8 63.9-55.8l13.4-98.1 36.4-238.9-69.2 9.2z" fill="#FFD632" /><path d="M814.5 775.6h-633c-15.8 0-31.3-5.4-43.7-15.3s-21.1-23.8-24.6-39.2L89.4 616.3l28.7-150.2c4.2-22 24.8-36.4 46.9-32.8l484.5 79c34.5 5.6 69.5 0.8 101.2-13.9 31.7-14.7 58-38.4 75.9-68.4l29-48.6 79-10.5L897.2 617l-13.4 98.1c-4.7 34.5-34.5 60.5-69.3 60.5zM100.6 616.1l23.3 102.6c6.1 27 29.8 45.9 57.5 45.9h633c29.3 0 54.5-21.9 58.4-51l13.4-98.1 35.3-231.8-59.2 7.9-26.3 44c-19.1 31.9-47 57.1-80.7 72.7-33.7 15.7-70.9 20.8-107.6 14.8l-484.5-79c-16.2-2.6-31.3 7.9-34.4 24l-28.2 148z" fill="#333336" /><path d="M96.3 622.2l22.3 103.1c6.7 29.4 32.8 50.2 62.9 50.2h633c32.2 0 59.5-23.8 63.9-55.8l12.1-97.5H96.3z" fill="#68A240" /><path d="M814.5 781h-633c-15.8 0-31.3-5.4-43.7-15.3s-21.1-23.8-24.6-39.2L89.5 616.7h807.2l-12.9 103.7c-4.7 34.6-34.5 60.6-69.3 60.6zM103.1 627.7l20.8 96.4c6.1 27 29.8 45.8 57.5 45.8h633c29.3 0 54.5-21.9 58.4-51l11.4-91.3H103.1z" fill="#333336" /></svg>