<svg xmlns="http://www.w3.org/2000/svg" xmlns:xlink="http://www.w3.org/1999/xlink" version="1.1" width="256" height="256" viewBox="0 0 256 256" xml:space="preserve">

<defs>
</defs>
<g style="stroke: none; stroke-width: 0; stroke-dasharray: none; stroke-linecap: butt; stroke-linejoin: miter; stroke-miterlimit: 10; fill: none; fill-rule: nonzero; opacity: 1;" transform="translate(1.4065934065934016 1.4065934065934016) scale(2.81 2.81)" >
	<path d="M 50.619 30.076 C 39.471 32.628 27.781 42.6 27.781 54.522 l 3.371 18.432 h 38.934 V 54.522 C 70.086 42.6 61.766 32.628 50.619 30.076 z" style="stroke: none; stroke-width: 1; stroke-dasharray: none; stroke-linecap: butt; stroke-linejoin: miter; stroke-miterlimit: 10; fill: rgb(251,66,57); fill-rule: nonzero; opacity: 1;" transform=" matrix(1 0 0 1 0 0) " stroke-linecap="round" />
	<path d="M 50.619 30.076 c -1.807 -0.414 -3.686 -0.64 -5.619 -0.64 c -13.854 0 -25.086 11.231 -25.086 25.086 v 18.432 h 11.237 V 54.522 C 31.152 42.6 39.471 32.628 50.619 30.076 z" style="stroke: none; stroke-width: 1; stroke-dasharray: none; stroke-linecap: butt; stroke-linejoin: miter; stroke-miterlimit: 10; fill: rgb(226,23,23); fill-rule: nonzero; opacity: 1;" transform=" matrix(1 0 0 1 0 0) " stroke-linecap="round" />
	<path d="M 73.61 72.954 H 28.824 v 13.916 h 48.618 V 76.786 C 77.442 74.669 75.727 72.954 73.61 72.954 z" style="stroke: none; stroke-width: 1; stroke-dasharray: none; stroke-linecap: butt; stroke-linejoin: miter; stroke-miterlimit: 10; fill: rgb(202,237,255); fill-rule: nonzero; opacity: 1;" transform=" matrix(1 0 0 1 0 0) " stroke-linecap="round" />
	<path d="M 31.072 78.637 v -5.683 H 16.39 c -2.116 0 -3.832 1.716 -3.832 3.832 v 8.382 c 0 2.116 1.716 3.832 3.832 3.832 h 57.22 c 2.116 0 3.832 -1.716 3.832 -3.832 v -0.546 H 37.057 C 33.752 84.622 31.072 81.942 31.072 78.637 z" style="stroke: none; stroke-width: 1; stroke-dasharray: none; stroke-linecap: butt; stroke-linejoin: miter; stroke-miterlimit: 10; fill: rgb(118,194,224); fill-rule: nonzero; opacity: 1;" transform=" matrix(1 0 0 1 0 0) " stroke-linecap="round" />
	<path d="M 70.086 73.954 H 19.915 c -0.552 0 -1 -0.447 -1 -1 V 54.521 c 0 -14.384 11.702 -26.085 26.085 -26.085 s 26.086 11.702 26.086 26.085 v 18.433 C 71.086 73.507 70.639 73.954 70.086 73.954 z M 20.915 71.954 h 48.171 V 54.521 c 0 -13.281 -10.805 -24.085 -24.086 -24.085 c -13.281 0 -24.085 10.805 -24.085 24.085 V 71.954 z" style="stroke: none; stroke-width: 1; stroke-dasharray: none; stroke-linecap: butt; stroke-linejoin: miter; stroke-miterlimit: 10; fill: rgb(0,0,0); fill-rule: nonzero; opacity: 1;" transform=" matrix(1 0 0 1 0 0) " stroke-linecap="round" />
	<path d="M 73.61 90 H 16.39 c -2.665 0 -4.833 -2.168 -4.833 -4.832 v -8.382 c 0 -2.664 2.168 -4.832 4.833 -4.832 h 57.22 c 2.664 0 4.832 2.168 4.832 4.832 v 8.382 C 78.442 87.832 76.274 90 73.61 90 z M 16.39 73.954 c -1.562 0 -2.833 1.271 -2.833 2.832 v 8.382 c 0 1.562 1.271 2.832 2.833 2.832 h 57.22 c 1.562 0 2.832 -1.271 2.832 -2.832 v -8.382 c 0 -1.562 -1.271 -2.832 -2.832 -2.832 H 16.39 z" style="stroke: none; stroke-width: 1; stroke-dasharray: none; stroke-linecap: butt; stroke-linejoin: miter; stroke-miterlimit: 10; fill: rgb(0,0,0); fill-rule: nonzero; opacity: 1;" transform=" matrix(1 0 0 1 0 0) " stroke-linecap="round" />
	<path d="M 45 16.246 c -0.552 0 -1 -0.448 -1 -1 V 1 c 0 -0.552 0.448 -1 1 -1 s 1 0.448 1 1 v 14.246 C 46 15.798 45.552 16.246 45 16.246 z" style="stroke: none; stroke-width: 1; stroke-dasharray: none; stroke-linecap: butt; stroke-linejoin: miter; stroke-miterlimit: 10; fill: rgb(0,0,0); fill-rule: nonzero; opacity: 1;" transform=" matrix(1 0 0 1 0 0) " stroke-linecap="round" />
	<path d="M 20.111 26.555 c -0.256 0 -0.512 -0.098 -0.707 -0.293 L 9.331 16.189 c -0.391 -0.391 -0.391 -1.023 0 -1.414 s 1.023 -0.391 1.414 0 l 10.073 10.073 c 0.391 0.391 0.391 1.023 0 1.414 C 20.623 26.458 20.367 26.555 20.111 26.555 z" style="stroke: none; stroke-width: 1; stroke-dasharray: none; stroke-linecap: butt; stroke-linejoin: miter; stroke-miterlimit: 10; fill: rgb(0,0,0); fill-rule: nonzero; opacity: 1;" transform=" matrix(1 0 0 1 0 0) " stroke-linecap="round" />
	<path d="M 69.889 26.555 c -0.256 0 -0.512 -0.098 -0.707 -0.293 c -0.391 -0.391 -0.391 -1.023 0 -1.414 l 10.073 -10.073 c 0.391 -0.391 1.023 -0.391 1.414 0 s 0.391 1.023 0 1.414 L 70.596 26.262 C 70.4 26.458 70.145 26.555 69.889 26.555 z" style="stroke: none; stroke-width: 1; stroke-dasharray: none; stroke-linecap: butt; stroke-linejoin: miter; stroke-miterlimit: 10; fill: rgb(0,0,0); fill-rule: nonzero; opacity: 1;" transform=" matrix(1 0 0 1 0 0) " stroke-linecap="round" />
	<path d="M 45 51.515 L 45 51.515 c -3.297 0 -5.969 2.673 -5.969 5.969 v 15.47 h 11.939 v -15.47 C 50.969 54.187 48.297 51.515 45 51.515 z" style="stroke: none; stroke-width: 1; stroke-dasharray: none; stroke-linecap: butt; stroke-linejoin: miter; stroke-miterlimit: 10; fill: rgb(254,192,7); fill-rule: nonzero; opacity: 1;" transform=" matrix(1 0 0 1 0 0) " stroke-linecap="round" />
	<path d="M 50.97 73.954 H 39.031 c -0.552 0 -1 -0.447 -1 -1 v -15.47 c 0 -3.843 3.126 -6.97 6.969 -6.97 s 6.97 3.127 6.97 6.97 v 15.47 C 51.97 73.507 51.522 73.954 50.97 73.954 z M 40.031 71.954 h 9.939 v -14.47 c 0 -2.74 -2.229 -4.97 -4.97 -4.97 s -4.969 2.229 -4.969 4.97 V 71.954 z" style="stroke: none; stroke-width: 1; stroke-dasharray: none; stroke-linecap: butt; stroke-linejoin: miter; stroke-miterlimit: 10; fill: rgb(0,0,0); fill-rule: nonzero; opacity: 1;" transform=" matrix(1 0 0 1 0 0) " stroke-linecap="round" />
</g>
</svg>